<svg width="555" height="555" viewBox="0 0 555 555" fill="none" xmlns="http://www.w3.org/2000/svg">
    <circle cx="277.5" cy="277.5" r="277.5" fill="white" />
    <path fill-rule="evenodd" clip-rule="evenodd"
        d="M144.512 405.55C142.403 360.489 174.469 320.083 220.062 312.812C234.543 310.503 248.768 311.796 261.822 316.028C263.931 361.089 231.865 401.495 186.272 408.765C171.79 411.075 157.566 409.782 144.512 405.55Z"
        fill="#67BE4D" />
    <path fill-rule="evenodd" clip-rule="evenodd"
        d="M233.177 302.333C229.064 228.811 281.185 162.637 355.484 150.789C377.897 147.215 399.93 148.967 420.293 155.111C424.406 228.633 372.285 294.807 297.986 306.655C275.573 310.229 253.54 308.476 233.177 302.333Z"
        fill="#67BE4D" />
    <path fill-rule="evenodd" clip-rule="evenodd"
        d="M215.661 292.473C182.66 299.258 149.126 280.289 138.471 247.494C135.087 237.077 134.389 226.433 135.997 216.31C168.999 209.525 202.532 228.494 213.187 261.289C216.572 271.706 217.269 282.35 215.661 292.473Z"
        fill="#67BE4D" />
    <path fill-rule="evenodd" clip-rule="evenodd"
        d="M420.515 155.144C422.52 182.418 407.655 236.088 365.683 272.692C337.67 297.121 300.699 297.992 263.974 298.856C229.503 299.667 195.249 300.473 168.821 320.75C142.94 340.607 141.587 377.672 144.41 405.435C144.41 405.435 144.442 405.45 144.508 405.478C144.509 405.502 144.51 405.526 144.511 405.55C144.806 405.645 145.102 405.74 145.399 405.832C146.591 406.273 148.918 407.034 152.685 407.88C153.169 407.989 153.772 408.08 154.47 408.155C164.668 410.203 175.397 410.499 186.271 408.765C228.473 402.036 259.085 366.916 261.733 325.994C251.983 357.682 224.981 382.729 190.029 388.302C186.171 388.918 182.332 389.277 178.528 389.394C174.305 369.683 171.004 350.968 187.82 337.034C211.761 317.197 241.49 316.784 272.617 316.351C309.608 315.837 348.572 315.296 382.141 282.096C424.962 239.746 430.608 188.925 420.515 155.144Z"
        fill="#295729" />
</svg>
    