<svg width="298" height="289" viewBox="0 0 298 289" fill="none" xmlns="http://www.w3.org/2000/svg">
    <path fill-rule="evenodd" clip-rule="evenodd"
        d="M15.616 269.034C13.4925 225.039 45.7751 185.587 91.6764 178.489C106.256 176.234 120.576 177.496 133.719 181.628C135.843 225.624 103.56 265.075 57.6587 272.174C43.0791 274.428 28.7586 273.166 15.616 269.034Z"
        fill="#67BE4D" />
    <path fill-rule="evenodd" clip-rule="evenodd"
        d="M104.881 168.258C100.74 96.4755 153.213 31.8665 228.014 20.2989C250.579 16.8093 272.761 18.5202 293.261 24.5187C297.402 96.3015 244.929 160.911 170.128 172.478C147.563 175.968 125.381 174.257 104.881 168.258Z"
        fill="#67BE4D" />
    <path fill-rule="evenodd" clip-rule="evenodd"
        d="M87.2466 158.632C54.0222 165.257 20.2621 146.737 9.53503 114.717C6.12784 104.547 5.42597 94.1539 7.04458 84.2706C40.269 77.6458 74.0291 96.1664 84.7561 128.186C88.1633 138.356 88.8652 148.749 87.2466 158.632Z"
        fill="#67BE4D" />
    <path fill-rule="evenodd" clip-rule="evenodd"
        d="M293.484 24.5509C295.503 51.1795 280.538 103.581 238.282 139.319C210.08 163.171 172.859 164.02 135.886 164.864C101.182 165.656 66.6967 166.443 40.0903 186.24C14.0346 205.627 12.6721 241.816 15.5145 268.923C15.5145 268.923 15.5466 268.937 15.6127 268.965C15.6138 268.988 15.6149 269.011 15.616 269.034C15.9087 269.126 16.2019 269.217 16.4958 269.306C17.6916 269.735 20.0378 270.481 23.8447 271.31C24.3343 271.417 24.9443 271.506 25.6514 271.579C35.9154 273.577 46.714 273.866 57.6587 272.174C100.146 265.603 130.965 231.314 133.63 191.359C123.814 222.299 96.6297 246.754 61.4415 252.195C57.5576 252.796 53.6921 253.147 49.8624 253.261C45.6112 234.016 42.2875 215.744 59.2178 202.139C83.3199 182.772 113.25 182.368 144.587 181.946C181.828 181.444 221.056 180.915 254.851 148.501C297.962 107.152 303.646 57.5334 293.484 24.5509Z"
        fill="#295729" />
</svg>
    