<svg width="28" height="29" viewBox="0 0 28 29" fill="none" xmlns="http://www.w3.org/2000/svg">
    <path
        d="M13.9999 18.3897C16.5783 18.3897 18.6666 16.3014 18.6666 13.723V7.30637C18.6666 4.72804 16.5783 2.6397 13.9999 2.6397C11.4216 2.6397 9.33325 4.72804 9.33325 7.30637V13.723C9.33325 16.3014 11.4216 18.3897 13.9999 18.3897Z"
        stroke="#67BE4D" stroke-width="1.41231" stroke-linecap="round" stroke-linejoin="round" />
    <path
        d="M5.0752 11.5648V13.5482C5.0752 18.4715 9.07686 22.4732 14.0002 22.4732C18.9235 22.4732 22.9252 18.4715 22.9252 13.5482V11.5648"
        stroke="#67BE4D" stroke-width="1.41231" stroke-linecap="round" stroke-linejoin="round" />
    <path d="M12.3784 7.80823C13.4284 7.42323 14.5718 7.42323 15.6218 7.80823" stroke="#67BE4D"
        stroke-width="1.41231" stroke-linecap="round" stroke-linejoin="round" />
    <path d="M13.0667 10.2814C13.685 10.118 14.3267 10.118 14.945 10.2814" stroke="#67BE4D"
        stroke-width="1.41231" stroke-linecap="round" stroke-linejoin="round" />
    <path d="M14 22.4732V25.9732" stroke="#67BE4D" stroke-width="1.41231" stroke-linecap="round"
        stroke-linejoin="round" />
</svg>
    