<svg width="28" height="29" viewBox="0 0 28 29" fill="none" xmlns="http://www.w3.org/2000/svg">
    <path fill-rule="evenodd" clip-rule="evenodd"
        d="M2.625 6.13975C2.625 4.36784 4.06142 2.93141 5.83333 2.93141H7.875C8.35825 2.93141 8.75 3.32316 8.75 3.80641C8.75 4.28966 8.35825 4.68141 7.875 4.68141H5.83333C5.02791 4.68141 4.375 5.33433 4.375 6.13975V8.18141C4.375 8.66466 3.98325 9.05641 3.5 9.05641C3.01675 9.05641 2.625 8.66466 2.625 8.18141V6.13975ZM22.1667 4.68141H20.125C19.6418 4.68141 19.25 4.28966 19.25 3.80641C19.25 3.32316 19.6418 2.93141 20.125 2.93141H22.1667C23.9386 2.93141 25.375 4.36784 25.375 6.13975V8.18141C25.375 8.66466 24.9832 9.05641 24.5 9.05641C24.0168 9.05641 23.625 8.66466 23.625 8.18141V6.13975C23.625 5.33433 22.9721 4.68141 22.1667 4.68141ZM3.5 19.5564C3.98325 19.5564 4.375 19.9482 4.375 20.4314V22.4731C4.375 23.2785 5.02791 23.9314 5.83333 23.9314H7.875C8.35825 23.9314 8.75 24.3232 8.75 24.8064C8.75 25.2897 8.35825 25.6814 7.875 25.6814H5.83333C4.06142 25.6814 2.625 24.245 2.625 22.4731V20.4314C2.625 19.9482 3.01675 19.5564 3.5 19.5564ZM23.625 22.4731V20.4314C23.625 19.9482 24.0168 19.5564 24.5 19.5564C24.9832 19.5564 25.375 19.9482 25.375 20.4314V22.4731C25.375 24.245 23.9386 25.6814 22.1667 25.6814H20.125C19.6418 25.6814 19.25 25.2897 19.25 24.8064C19.25 24.3232 19.6418 23.9314 20.125 23.9314H22.1667C22.9721 23.9314 23.625 23.2785 23.625 22.4731ZM19.8333 11.1345C19.8333 11.6178 19.4416 12.0095 18.9583 12.0095H9.04167C8.55842 12.0095 8.16667 11.6178 8.16667 11.1345C8.16667 10.6513 8.55842 10.2595 9.04167 10.2595H18.9583C19.4416 10.2595 19.8333 10.6513 19.8333 11.1345Z"
        fill="#67BE4D" />
    <path
        d="M9.04167 14.9627H18.9583C19.4416 14.9627 19.8333 14.5709 19.8333 14.0877C19.8333 13.6044 19.4416 13.2127 18.9583 13.2127H9.04167C8.55842 13.2127 8.16667 13.6044 8.16667 14.0877C8.16667 14.5709 8.55842 14.9627 9.04167 14.9627Z"
        fill="#67BE4D" />
    <path
        d="M9.04167 18.0252H14.6927C15.176 18.0252 15.5677 17.6334 15.5677 17.1502C15.5677 16.6669 15.176 16.2752 14.6927 16.2752H9.04167C8.55842 16.2752 8.16667 16.6669 8.16667 17.1502C8.16667 17.6334 8.55842 18.0252 9.04167 18.0252Z"
        fill="#67BE4D" />
</svg>
    